<?xml version="1.0" standalone="no"?>
<!DOCTYPE svg PUBLIC "-//W3C//DTD SVG 20010904//EN"
 "http://www.w3.org/TR/2001/REC-SVG-20010904/DTD/svg10.dtd">
<svg version="1.0" xmlns="http://www.w3.org/2000/svg"
 width="1024.000000pt" height="1024.000000pt" viewBox="0 0 1024.000000 1024.000000"
 preserveAspectRatio="xMidYMid meet">
<metadata>
Created by potrace 1.11, written by Peter Selinger 2001-2013
</metadata>
<g transform="translate(0.000000,1024.000000) scale(0.100000,-0.100000)"
fill="#000000" stroke="none">
<path d="M0 5120 l0 -5120 5120 0 5120 0 0 5120 0 5120 -5120 0 -5120 0 0
-5120z m5625 4669 c1130 -52 2086 -225 2591 -468 355 -171 468 -326 588 -806
56 -224 115 -577 147 -885 l12 -116 59 -11 c180 -34 334 -191 368 -372 14 -75
13 -1010 -1 -1087 -25 -140 -120 -264 -247 -325 l-70 -34 6 -839 c6 -974 -14
-3123 -30 -3175 -15 -48 -71 -105 -126 -129 -79 -34 -172 -44 -329 -37 l-142
7 -3 -364 -3 -363 -33 -67 c-83 -170 -292 -281 -527 -281 -266 0 -490 140
-549 342 -13 45 -16 113 -16 393 l0 338 -2122 -2 -2123 -3 -5 -360 -5 -360
-33 -67 c-83 -170 -292 -281 -527 -281 -266 0 -490 140 -549 342 -13 45 -16
113 -16 394 l0 340 -237 -5 c-277 -6 -309 0 -380 65 -88 81 -119 166 -133 362
-39 527 -56 944 -71 1701 -10 541 -7 1369 8 1845 l6 205 -58 30 c-118 59 -216
189 -244 322 -14 68 -15 1017 -1 1093 33 178 181 331 357 370 l52 12 6 51 c83
760 179 1219 303 1461 48 93 169 213 282 279 492 289 1507 470 2805 500 198 4
755 -4 990 -15z"/>
<path d="M2930 8620 l0 -330 2145 0 2145 0 0 330 0 330 -2145 0 -2145 0 0
-330z"/>
<path d="M2180 6420 l0 -1520 2895 0 2895 0 0 1520 0 1520 -2895 0 -2895 0 0
-1520z"/>
<path d="M2842 3440 c-102 -27 -185 -74 -267 -152 -110 -104 -163 -208 -187
-365 -21 -142 15 -285 104 -419 164 -245 496 -335 765 -207 163 76 289 233
334 413 7 30 13 98 13 150 -2 172 -66 315 -195 435 -153 143 -367 197 -567
145z"/>
<path d="M7047 3444 c-172 -41 -330 -169 -407 -330 -167 -346 29 -763 405
-859 69 -18 202 -20 277 -4 169 35 340 170 416 329 48 101 62 163 62 273 0
280 -196 527 -470 591 -80 19 -205 19 -283 0z"/>
</g>
</svg>
