<?xml version="1.0" standalone="no"?>
<!DOCTYPE svg PUBLIC "-//W3C//DTD SVG 20010904//EN"
 "http://www.w3.org/TR/2001/REC-SVG-20010904/DTD/svg10.dtd">
<svg version="1.0" xmlns="http://www.w3.org/2000/svg"
 width="1024.000000pt" height="1024.000000pt" viewBox="0 0 1024.000000 1024.000000"
 preserveAspectRatio="xMidYMid meet">
<metadata>
Created by potrace 1.11, written by Peter Selinger 2001-2013
</metadata>
<g transform="translate(0.000000,1024.000000) scale(0.100000,-0.100000)"
fill="#000000" stroke="none">
<path d="M0 5120 l0 -5120 5120 0 5120 0 0 5120 0 5120 -5120 0 -5120 0 0
-5120z m5610 4099 c986 -47 1829 -204 2265 -421 184 -92 289 -184 357 -314
105 -199 194 -579 252 -1070 l22 -186 76 -23 c42 -12 94 -33 115 -47 94 -62
163 -165 183 -269 13 -67 13 -891 0 -958 -5 -28 -22 -76 -37 -107 -33 -69
-134 -165 -197 -189 l-46 -18 6 -686 c8 -778 -12 -2798 -27 -2848 -15 -46 -79
-99 -146 -120 -47 -14 -89 -18 -215 -16 l-157 1 -3 -311 -3 -312 -27 -57 c-74
-159 -250 -259 -458 -261 -156 -2 -281 41 -380 130 -121 108 -130 146 -130
520 l0 293 -1864 0 -1865 0 -3 -317 c-3 -368 -3 -368 -103 -472 -98 -103 -235
-155 -400 -154 -195 1 -372 94 -451 235 l-29 53 -5 325 -5 325 -225 0 c-251 1
-269 5 -336 77 -72 75 -89 146 -108 441 -46 702 -60 1283 -54 2314 l6 842 -52
30 c-105 59 -185 168 -206 282 -14 73 -13 894 1 961 33 158 170 295 322 323
20 4 37 12 37 18 0 41 56 472 80 613 74 442 155 689 264 810 294 328 1279 545
2626 578 187 4 687 -3 920 -15z"/>
<path d="M3200 8195 l0 -285 1885 0 1885 0 0 285 0 285 -1885 0 -1885 0 0
-285z"/>
<path d="M2547 7593 c-4 -3 -7 -604 -7 -1335 l0 -1328 2545 0 2545 0 0 1335 0
1335 -2538 0 c-1396 0 -2542 -3 -2545 -7z"/>
<path d="M3121 3644 c-190 -51 -345 -216 -386 -411 -18 -86 -18 -130 0 -216
42 -197 197 -361 390 -412 289 -75 592 108 660 397 66 282 -108 569 -391 643
-72 19 -201 18 -273 -1z"/>
<path d="M6811 3644 c-188 -50 -342 -208 -386 -396 -66 -279 102 -558 384
-642 69 -20 199 -21 276 -1 193 51 348 215 390 412 18 86 18 130 0 216 -42
197 -197 361 -390 412 -73 19 -202 18 -274 -1z"/>
</g>
</svg>
